<svg id="visual" viewBox="0 0 900 900" width="900" height="900" xmlns="http://www.w3.org/2000/svg" xmlns:xlink="http://www.w3.org/1999/xlink" version="1.1"><rect x="0" y="0" width="900" height="900" fill="#140021"></rect><path d="M0 447L45 447L45 488L90 488L90 675L135 675L135 557L180 557L180 577L225 577L225 328L270 328L270 470L315 470L315 400L360 400L360 611L405 611L405 577L450 577L450 624L495 624L495 526L540 526L540 398L585 398L585 670L630 670L630 401L675 401L675 403L720 403L720 484L765 484L765 683L810 683L810 644L855 644L855 422L900 422L900 624L900 901L900 901L855 901L855 901L810 901L810 901L765 901L765 901L720 901L720 901L675 901L675 901L630 901L630 901L585 901L585 901L540 901L540 901L495 901L495 901L450 901L450 901L405 901L405 901L360 901L360 901L315 901L315 901L270 901L270 901L225 901L225 901L180 901L180 901L135 901L135 901L90 901L90 901L45 901L45 901L0 901Z" fill="#9900ff"></path><path d="M0 503L45 503L45 547L90 547L90 770L135 770L135 657L180 657L180 469L225 469L225 681L270 681L270 486L315 486L315 494L360 494L360 705L405 705L405 550L450 550L450 455L495 455L495 607L540 607L540 547L585 547L585 601L630 601L630 488L675 488L675 482L720 482L720 658L765 658L765 617L810 617L810 512L855 512L855 604L900 604L900 731L900 901L900 901L855 901L855 901L810 901L810 901L765 901L765 901L720 901L720 901L675 901L675 901L630 901L630 901L585 901L585 901L540 901L540 901L495 901L495 901L450 901L450 901L405 901L405 901L360 901L360 901L315 901L315 901L270 901L270 901L225 901L225 901L180 901L180 901L135 901L135 901L90 901L90 901L45 901L45 901L0 901Z" fill="#8200d9"></path><path d="M0 794L45 794L45 827L90 827L90 567L135 567L135 681L180 681L180 609L225 609L225 769L270 769L270 624L315 624L315 822L360 822L360 746L405 746L405 730L450 730L450 759L495 759L495 820L540 820L540 809L585 809L585 658L630 658L630 787L675 787L675 702L720 702L720 662L765 662L765 686L810 686L810 695L855 695L855 730L900 730L900 592L900 901L900 901L855 901L855 901L810 901L810 901L765 901L765 901L720 901L720 901L675 901L675 901L630 901L630 901L585 901L585 901L540 901L540 901L495 901L495 901L450 901L450 901L405 901L405 901L360 901L360 901L315 901L315 901L270 901L270 901L225 901L225 901L180 901L180 901L135 901L135 901L90 901L90 901L45 901L45 901L0 901Z" fill="#6c00b4"></path><path d="M0 809L45 809L45 728L90 728L90 743L135 743L135 844L180 844L180 696L225 696L225 803L270 803L270 755L315 755L315 813L360 813L360 831L405 831L405 794L450 794L450 757L495 757L495 843L540 843L540 849L585 849L585 779L630 779L630 831L675 831L675 866L720 866L720 804L765 804L765 852L810 852L810 768L855 768L855 691L900 691L900 748L900 901L900 901L855 901L855 901L810 901L810 901L765 901L765 901L720 901L720 901L675 901L675 901L630 901L630 901L585 901L585 901L540 901L540 901L495 901L495 901L450 901L450 901L405 901L405 901L360 901L360 901L315 901L315 901L270 901L270 901L225 901L225 901L180 901L180 901L135 901L135 901L90 901L90 901L45 901L45 901L0 901Z" fill="#560090"></path></svg>